# xmcd CD database file generated by LOLA_Freedb v0.9beta0
# 
# Track frame offsets:
#      150
#      14288
#      32230
#      46762
#      59536
#      72531
#      88953
#      104328
#      115961
#      135086
#      148910
#      162635
#      173060
#      189947
#      203372
#      222052
#      239622
#      252795
# 
# Disc length: 3582 seconds
# 
# Revision: 0 
# Processed by: cddbd v1.5.2PL0 Copyright (c) Steve Scherf et al.
# Submitted via: LOLA_Freedb v0.9beta0
# 
DISCID=020dfc12
DTITLE=div Folksmusikanten - Schlager Barometer Vol 2
DYEAR=1900
DGENRE=
TTITLE0=Die Jungen Klostertaler - A Hirtamadl
TTITLE1=Claudia Jung - Du Ich Lieb Dich
TTITLE2=Sommerwind - Warum Hast Du Nie Was Gsagt
TTITLE3=Original Alpenland Quintett - Huettenabend-Charleston
TTITLE4=Vreni Und Rudi - Die Wahre Liab
TTITLE5=Alpentrio Tirol - Alpentrio-Medley
TTITLE6=Alpenklang - So Wie Es War
TTITLE7=Zillertaler Schuerzenjaeger - Typisch Fuer Mi
TTITLE8=Fricktaler Musikanten - Grueezi-Medley
TTITLE9=Angela Wiedl - So A Tag
TTITLE10=Calimeros - Lass Mich Bitte Nicht Allein
TTITLE11=Zillertaler Jodlertrio - Mittn Aufm Tanzboden
TTITLE12=Trio Valeros - Sierra Madre
TTITLE13=Duo Herzklang - Ich Moecht Mit Dir Ein Luftschloss Bauen
TTITLE14=Nockalm Quintett - Schwarzer Sand Von Santa Cruz
TTITLE15=Die Paldauer - Angelina My Love
TTITLE16=Roland - Kleine Weisse Taube
TTITLE17=Kliby Und Caroline - Am Himmel Stoht Es Sternli Z Nacht
EXTD=
EXTT0=
EXTT1=
EXTT2=
EXTT3=
EXTT4=
EXTT5=
EXTT6=
EXTT7=
EXTT8=
EXTT9=
EXTT10=
EXTT11=
EXTT12=
EXTT13=
EXTT14=
EXTT15=
EXTT16=
EXTT17=
PLAYORDER=
